<svg xmlns="http://www.w3.org/2000/svg" width="1399.744" height="102.046" viewBox="0 0 1399.744 102.046">
  <g id="Group_158039" data-name="Group 158039" transform="translate(-260 -960.954)">
    <g id="Group_134837" data-name="Group 134837" transform="translate(0 12.039)">
      <g id="Group_134832" data-name="Group 134832" transform="translate(-437.726 346)">
        <g id="Group_133964" data-name="Group 133964" transform="translate(915.872 646.356)" opacity="0.07">
          <path id="Path_203029" data-name="Path 203029" d="M58.171,36l-42.5,42.5h42.5l43.015-43.027Z" transform="translate(-15.666 -35.478)" fill="#b8b5b0"/>
        </g>
        <g id="Group_133965" data-name="Group 133965" transform="translate(1002.898 646.356)" opacity="0.07">
          <path id="Path_203030" data-name="Path 203030" d="M61.754,36l-42.5,42.5h42.5l43.015-43.027Z" transform="translate(-19.249 -35.478)" fill="#b8b5b0"/>
        </g>
        <g id="Group_133966" data-name="Group 133966" transform="translate(1089.924 646.356)" opacity="0.07">
          <path id="Path_203031" data-name="Path 203031" d="M65.337,36l-42.5,42.5h42.5l43.015-43.027Z" transform="translate(-22.832 -35.478)" fill="#b8b5b0"/>
        </g>
        <g id="Group_133967" data-name="Group 133967" transform="translate(1176.949 646.356)" opacity="0.07">
          <path id="Path_203032" data-name="Path 203032" d="M68.92,36l-42.5,42.5h42.5l43.015-43.027Z" transform="translate(-26.415 -35.478)" fill="#b8b5b0"/>
        </g>
        <g id="Group_133968" data-name="Group 133968" transform="translate(697.726 687.804)">
          <path id="Path_203033" data-name="Path 203033" d="M60.873,40.342H8.264a1.579,1.579,0,1,1,0-3.157H60.873a1.579,1.579,0,1,1,0,3.157Z" transform="translate(-6.685 -37.185)" fill="#b8b5b0"/>
        </g>
        <g id="Group_133969" data-name="Group 133969" transform="translate(776.662 602.915)">
          <path id="Path_203034" data-name="Path 203034" d="M107.648,121.736H11.489a1.579,1.579,0,0,1,0-3.157h95.527L191.054,34.54a1.475,1.475,0,0,1,1.093-.486H489.2l259.061-.364H1045.28a1.432,1.432,0,0,1,1.117.462l84.038,84.038h103.59a1.591,1.591,0,0,1,0,3.182H1129.78a1.488,1.488,0,0,1-1.117-.486l-84.038-84.038H748.256L489.2,37.236H192.8l-84.038,84.038A1.467,1.467,0,0,1,107.648,121.736Z" transform="translate(-9.935 -33.69)" fill="#b8b5b0"/>
        </g>
        <g id="Group_133970" data-name="Group 133970" transform="translate(2019.431 687.414)">
          <path id="Path_203035" data-name="Path 203035" d="M137.562,40.351H62.681a1.591,1.591,0,0,1,0-3.182h74.881a1.591,1.591,0,0,1,0,3.182Z" transform="translate(-61.102 -37.169)" fill="#b8b5b0"/>
        </g>
        <g id="Group_133976" data-name="Group 133976" transform="translate(1769.514 645.977)" opacity="0.07">
          <path id="Path_203040" data-name="Path 203040" d="M93.84,35.985l42.5,42.5H93.84L50.812,35.463Z" transform="translate(-50.812 -35.463)" fill="#b8b5b0"/>
        </g>
        <g id="Group_133977" data-name="Group 133977" transform="translate(1682.488 645.977)" opacity="0.07">
          <path id="Path_203041" data-name="Path 203041" d="M90.232,35.985l42.5,42.5h-42.5l-43-43.027Z" transform="translate(-47.229 -35.463)" fill="#b8b5b0"/>
        </g>
        <g id="Group_133978" data-name="Group 133978" transform="translate(1595.462 645.977)" opacity="0.07">
          <path id="Path_203042" data-name="Path 203042" d="M86.674,35.985l42.5,42.5h-42.5L43.646,35.463Z" transform="translate(-43.646 -35.463)" fill="#b8b5b0"/>
        </g>
        <g id="Group_133979" data-name="Group 133979" transform="translate(1508.437 645.977)" opacity="0.07">
          <path id="Path_203043" data-name="Path 203043" d="M83.066,35.985l42.5,42.5h-42.5l-43-43.027Z" transform="translate(-40.063 -35.463)" fill="#b8b5b0"/>
        </g>
        <g id="Group_133981" data-name="Group 133981" transform="translate(1270.91 646.878)" opacity="0.07">
          <path id="Path_203045" data-name="Path 203045" d="M70.155,35.5,29.667,75.989h253L243.2,36.52Z" transform="translate(-29.667 -35.5)" fill="#b8b5b0"/>
        </g>
      </g>
      <g id="Group_134833" data-name="Group 134833" transform="translate(-437.726 346)">
        <g id="Group_133964-2" data-name="Group 133964" transform="translate(915.872 646.356)" opacity="0.07">
          <path id="Path_203029-2" data-name="Path 203029" d="M58.171,36l-42.5,42.5h42.5l43.015-43.027Z" transform="translate(-15.666 -35.478)" fill="#b8b5b0"/>
        </g>
        <g id="Group_133965-2" data-name="Group 133965" transform="translate(1002.898 646.356)" opacity="0.07">
          <path id="Path_203030-2" data-name="Path 203030" d="M61.754,36l-42.5,42.5h42.5l43.015-43.027Z" transform="translate(-19.249 -35.478)" fill="#b8b5b0"/>
        </g>
        <g id="Group_133966-2" data-name="Group 133966" transform="translate(1089.924 646.356)" opacity="0.07">
          <path id="Path_203031-2" data-name="Path 203031" d="M65.337,36l-42.5,42.5h42.5l43.015-43.027Z" transform="translate(-22.832 -35.478)" fill="#b8b5b0"/>
        </g>
        <g id="Group_133967-2" data-name="Group 133967" transform="translate(1176.949 646.356)" opacity="0.07">
          <path id="Path_203032-2" data-name="Path 203032" d="M68.92,36l-42.5,42.5h42.5l43.015-43.027Z" transform="translate(-26.415 -35.478)" fill="#b8b5b0"/>
        </g>
        <g id="Group_133968-2" data-name="Group 133968" transform="translate(697.726 687.804)">
          <path id="Path_203033-2" data-name="Path 203033" d="M60.873,40.342H8.264a1.579,1.579,0,1,1,0-3.157H60.873a1.579,1.579,0,1,1,0,3.157Z" transform="translate(-6.685 -37.185)" fill="#b8b5b0"/>
        </g>
        <g id="Group_133969-2" data-name="Group 133969" transform="translate(776.662 602.915)">
          <path id="Path_203034-2" data-name="Path 203034" d="M107.648,121.736H11.489a1.579,1.579,0,0,1,0-3.157h95.527L191.054,34.54a1.475,1.475,0,0,1,1.093-.486H489.2l259.061-.364H1045.28a1.432,1.432,0,0,1,1.117.462l84.038,84.038h103.59a1.591,1.591,0,0,1,0,3.182H1129.78a1.488,1.488,0,0,1-1.117-.486l-84.038-84.038H748.256L489.2,37.236H192.8l-84.038,84.038A1.467,1.467,0,0,1,107.648,121.736Z" transform="translate(-9.935 -33.69)" fill="#b8b5b0"/>
        </g>
        <g id="Group_133970-2" data-name="Group 133970" transform="translate(2019.431 687.414)">
          <path id="Path_203035-2" data-name="Path 203035" d="M137.562,40.351H62.681a1.591,1.591,0,0,1,0-3.182h74.881a1.591,1.591,0,0,1,0,3.182Z" transform="translate(-61.102 -37.169)" fill="#b8b5b0"/>
        </g>
        <g id="Group_133976-2" data-name="Group 133976" transform="translate(1769.514 645.977)" opacity="0.07">
          <path id="Path_203040-2" data-name="Path 203040" d="M93.84,35.985l42.5,42.5H93.84L50.812,35.463Z" transform="translate(-50.812 -35.463)" fill="#b8b5b0"/>
        </g>
        <g id="Group_133977-2" data-name="Group 133977" transform="translate(1682.488 645.977)" opacity="0.07">
          <path id="Path_203041-2" data-name="Path 203041" d="M90.232,35.985l42.5,42.5h-42.5l-43-43.027Z" transform="translate(-47.229 -35.463)" fill="#b8b5b0"/>
        </g>
        <g id="Group_133978-2" data-name="Group 133978" transform="translate(1595.462 645.977)" opacity="0.07">
          <path id="Path_203042-2" data-name="Path 203042" d="M86.674,35.985l42.5,42.5h-42.5L43.646,35.463Z" transform="translate(-43.646 -35.463)" fill="#b8b5b0"/>
        </g>
        <g id="Group_133979-2" data-name="Group 133979" transform="translate(1508.437 645.977)" opacity="0.07">
          <path id="Path_203043-2" data-name="Path 203043" d="M83.066,35.985l42.5,42.5h-42.5l-43-43.027Z" transform="translate(-40.063 -35.463)" fill="#b8b5b0"/>
        </g>
      </g>
      <g id="Group_134834" data-name="Group 134834" transform="translate(-437.726 346)">
        <g id="Group_133964-3" data-name="Group 133964" transform="translate(915.872 646.356)" opacity="0.07">
          <path id="Path_203029-3" data-name="Path 203029" d="M58.171,36l-42.5,42.5h42.5l43.015-43.027Z" transform="translate(-15.666 -35.478)" fill="#b8b5b0"/>
        </g>
        <g id="Group_133965-3" data-name="Group 133965" transform="translate(1002.898 646.356)" opacity="0.07">
          <path id="Path_203030-3" data-name="Path 203030" d="M61.754,36l-42.5,42.5h42.5l43.015-43.027Z" transform="translate(-19.249 -35.478)" fill="#b8b5b0"/>
        </g>
        <g id="Group_133966-3" data-name="Group 133966" transform="translate(1089.924 646.356)" opacity="0.07">
          <path id="Path_203031-3" data-name="Path 203031" d="M65.337,36l-42.5,42.5h42.5l43.015-43.027Z" transform="translate(-22.832 -35.478)" fill="#b8b5b0"/>
        </g>
        <g id="Group_133967-3" data-name="Group 133967" transform="translate(1176.949 646.356)" opacity="0.07">
          <path id="Path_203032-3" data-name="Path 203032" d="M68.92,36l-42.5,42.5h42.5l43.015-43.027Z" transform="translate(-26.415 -35.478)" fill="#b8b5b0"/>
        </g>
        <g id="Group_133968-3" data-name="Group 133968" transform="translate(697.726 687.804)">
          <path id="Path_203033-3" data-name="Path 203033" d="M60.873,40.342H8.264a1.579,1.579,0,1,1,0-3.157H60.873a1.579,1.579,0,1,1,0,3.157Z" transform="translate(-6.685 -37.185)" fill="#b8b5b0"/>
        </g>
        <g id="Group_133969-3" data-name="Group 133969" transform="translate(776.662 602.915)">
          <path id="Path_203034-3" data-name="Path 203034" d="M107.648,121.736H11.489a1.579,1.579,0,0,1,0-3.157h95.527L191.054,34.54a1.475,1.475,0,0,1,1.093-.486H489.2l259.061-.364H1045.28a1.432,1.432,0,0,1,1.117.462l84.038,84.038h103.59a1.591,1.591,0,0,1,0,3.182H1129.78a1.488,1.488,0,0,1-1.117-.486l-84.038-84.038H748.256L489.2,37.236H192.8l-84.038,84.038A1.467,1.467,0,0,1,107.648,121.736Z" transform="translate(-9.935 -33.69)" fill="#b8b5b0"/>
        </g>
        <g id="Group_133970-3" data-name="Group 133970" transform="translate(2019.431 687.414)">
          <path id="Path_203035-3" data-name="Path 203035" d="M137.562,40.351H62.681a1.591,1.591,0,0,1,0-3.182h74.881a1.591,1.591,0,0,1,0,3.182Z" transform="translate(-61.102 -37.169)" fill="#b8b5b0"/>
        </g>
        <g id="Group_133976-3" data-name="Group 133976" transform="translate(1769.514 645.977)" opacity="0.07">
          <path id="Path_203040-3" data-name="Path 203040" d="M93.84,35.985l42.5,42.5H93.84L50.812,35.463Z" transform="translate(-50.812 -35.463)" fill="#b8b5b0"/>
        </g>
        <g id="Group_133977-3" data-name="Group 133977" transform="translate(1682.488 645.977)" opacity="0.07">
          <path id="Path_203041-3" data-name="Path 203041" d="M90.232,35.985l42.5,42.5h-42.5l-43-43.027Z" transform="translate(-47.229 -35.463)" fill="#b8b5b0"/>
        </g>
        <g id="Group_133978-3" data-name="Group 133978" transform="translate(1595.462 645.977)" opacity="0.07">
          <path id="Path_203042-3" data-name="Path 203042" d="M86.674,35.985l42.5,42.5h-42.5L43.646,35.463Z" transform="translate(-43.646 -35.463)" fill="#b8b5b0"/>
        </g>
        <g id="Group_133979-3" data-name="Group 133979" transform="translate(1508.437 645.977)" opacity="0.07">
          <path id="Path_203043-3" data-name="Path 203043" d="M83.066,35.985l42.5,42.5h-42.5l-43-43.027Z" transform="translate(-40.063 -35.463)" fill="#b8b5b0"/>
        </g>
      </g>
      <g id="Group_134835" data-name="Group 134835" transform="translate(-437.726 346)">
        <g id="Group_133964-4" data-name="Group 133964" transform="translate(915.872 646.356)" opacity="0.07">
          <path id="Path_203029-4" data-name="Path 203029" d="M58.171,36l-42.5,42.5h42.5l43.015-43.027Z" transform="translate(-15.666 -35.478)" fill="#b8b5b0"/>
        </g>
        <g id="Group_133965-4" data-name="Group 133965" transform="translate(1002.898 646.356)" opacity="0.07">
          <path id="Path_203030-4" data-name="Path 203030" d="M61.754,36l-42.5,42.5h42.5l43.015-43.027Z" transform="translate(-19.249 -35.478)" fill="#b8b5b0"/>
        </g>
        <g id="Group_133966-4" data-name="Group 133966" transform="translate(1089.924 646.356)" opacity="0.07">
          <path id="Path_203031-4" data-name="Path 203031" d="M65.337,36l-42.5,42.5h42.5l43.015-43.027Z" transform="translate(-22.832 -35.478)" fill="#b8b5b0"/>
        </g>
        <g id="Group_133967-4" data-name="Group 133967" transform="translate(1176.949 646.356)" opacity="0.07">
          <path id="Path_203032-4" data-name="Path 203032" d="M68.92,36l-42.5,42.5h42.5l43.015-43.027Z" transform="translate(-26.415 -35.478)" fill="#b8b5b0"/>
        </g>
        <g id="Group_133968-4" data-name="Group 133968" transform="translate(697.726 687.804)">
          <path id="Path_203033-4" data-name="Path 203033" d="M60.873,40.342H8.264a1.579,1.579,0,1,1,0-3.157H60.873a1.579,1.579,0,1,1,0,3.157Z" transform="translate(-6.685 -37.185)" fill="#b8b5b0"/>
        </g>
        <g id="Group_133969-4" data-name="Group 133969" transform="translate(776.662 602.915)">
          <path id="Path_203034-4" data-name="Path 203034" d="M107.648,121.736H11.489a1.579,1.579,0,0,1,0-3.157h95.527L191.054,34.54a1.475,1.475,0,0,1,1.093-.486H489.2l259.061-.364H1045.28a1.432,1.432,0,0,1,1.117.462l84.038,84.038h103.59a1.591,1.591,0,0,1,0,3.182H1129.78a1.488,1.488,0,0,1-1.117-.486l-84.038-84.038H748.256L489.2,37.236H192.8l-84.038,84.038A1.467,1.467,0,0,1,107.648,121.736Z" transform="translate(-9.935 -33.69)" fill="#b8b5b0"/>
        </g>
        <g id="Group_133970-4" data-name="Group 133970" transform="translate(2019.431 687.414)">
          <path id="Path_203035-4" data-name="Path 203035" d="M137.562,40.351H62.681a1.591,1.591,0,0,1,0-3.182h74.881a1.591,1.591,0,0,1,0,3.182Z" transform="translate(-61.102 -37.169)" fill="#b8b5b0"/>
        </g>
        <g id="Group_133976-4" data-name="Group 133976" transform="translate(1769.514 645.977)" opacity="0.07">
          <path id="Path_203040-4" data-name="Path 203040" d="M93.84,35.985l42.5,42.5H93.84L50.812,35.463Z" transform="translate(-50.812 -35.463)" fill="#b8b5b0"/>
        </g>
        <g id="Group_133977-4" data-name="Group 133977" transform="translate(1682.488 645.977)" opacity="0.07">
          <path id="Path_203041-4" data-name="Path 203041" d="M90.232,35.985l42.5,42.5h-42.5l-43-43.027Z" transform="translate(-47.229 -35.463)" fill="#b8b5b0"/>
        </g>
        <g id="Group_133978-4" data-name="Group 133978" transform="translate(1595.462 645.977)" opacity="0.07">
          <path id="Path_203042-4" data-name="Path 203042" d="M86.674,35.985l42.5,42.5h-42.5L43.646,35.463Z" transform="translate(-43.646 -35.463)" fill="#b8b5b0"/>
        </g>
        <g id="Group_133979-4" data-name="Group 133979" transform="translate(1508.437 645.977)" opacity="0.07">
          <path id="Path_203043-4" data-name="Path 203043" d="M83.066,35.985l42.5,42.5h-42.5l-43-43.027Z" transform="translate(-40.063 -35.463)" fill="#b8b5b0"/>
        </g>
      </g>
      <g id="Group_134836" data-name="Group 134836" transform="translate(-437.726 346)">
        <g id="Group_133964-5" data-name="Group 133964" transform="translate(915.872 646.356)" opacity="0.07">
          <path id="Path_203029-5" data-name="Path 203029" d="M58.171,36l-42.5,42.5h42.5l43.015-43.027Z" transform="translate(-15.666 -35.478)" fill="#b8b5b0"/>
        </g>
        <g id="Group_133965-5" data-name="Group 133965" transform="translate(1002.898 646.356)" opacity="0.07">
          <path id="Path_203030-5" data-name="Path 203030" d="M61.754,36l-42.5,42.5h42.5l43.015-43.027Z" transform="translate(-19.249 -35.478)" fill="#b8b5b0"/>
        </g>
        <g id="Group_133966-5" data-name="Group 133966" transform="translate(1089.924 646.356)" opacity="0.07">
          <path id="Path_203031-5" data-name="Path 203031" d="M65.337,36l-42.5,42.5h42.5l43.015-43.027Z" transform="translate(-22.832 -35.478)" fill="#b8b5b0"/>
        </g>
        <g id="Group_133967-5" data-name="Group 133967" transform="translate(1176.949 646.356)" opacity="0.07">
          <path id="Path_203032-5" data-name="Path 203032" d="M68.92,36l-42.5,42.5h42.5l43.015-43.027Z" transform="translate(-26.415 -35.478)" fill="#b8b5b0"/>
        </g>
        <g id="Group_133968-5" data-name="Group 133968" transform="translate(697.726 687.804)">
          <path id="Path_203033-5" data-name="Path 203033" d="M60.873,40.342H8.264a1.579,1.579,0,1,1,0-3.157H60.873a1.579,1.579,0,1,1,0,3.157Z" transform="translate(-6.685 -37.185)" fill="#b8b5b0"/>
        </g>
        <g id="Group_133969-5" data-name="Group 133969" transform="translate(776.662 602.915)">
          <path id="Path_203034-5" data-name="Path 203034" d="M107.648,121.736H11.489a1.579,1.579,0,0,1,0-3.157h95.527L191.054,34.54a1.475,1.475,0,0,1,1.093-.486H489.2l259.061-.364H1045.28a1.432,1.432,0,0,1,1.117.462l84.038,84.038h103.59a1.591,1.591,0,0,1,0,3.182H1129.78a1.488,1.488,0,0,1-1.117-.486l-84.038-84.038H748.256L489.2,37.236H192.8l-84.038,84.038A1.467,1.467,0,0,1,107.648,121.736Z" transform="translate(-9.935 -33.69)" fill="#b8b5b0"/>
        </g>
        <g id="Group_133970-5" data-name="Group 133970" transform="translate(2019.431 687.414)">
          <path id="Path_203035-5" data-name="Path 203035" d="M137.562,40.351H62.681a1.591,1.591,0,0,1,0-3.182h74.881a1.591,1.591,0,0,1,0,3.182Z" transform="translate(-61.102 -37.169)" fill="#b8b5b0"/>
        </g>
        <g id="Group_133976-5" data-name="Group 133976" transform="translate(1769.514 645.977)" opacity="0.07">
          <path id="Path_203040-5" data-name="Path 203040" d="M93.84,35.985l42.5,42.5H93.84L50.812,35.463Z" transform="translate(-50.812 -35.463)" fill="#b8b5b0"/>
        </g>
        <g id="Group_133977-5" data-name="Group 133977" transform="translate(1682.488 645.977)" opacity="0.07">
          <path id="Path_203041-5" data-name="Path 203041" d="M90.232,35.985l42.5,42.5h-42.5l-43-43.027Z" transform="translate(-47.229 -35.463)" fill="#b8b5b0"/>
        </g>
        <g id="Group_133978-5" data-name="Group 133978" transform="translate(1595.462 645.977)" opacity="0.07">
          <path id="Path_203042-5" data-name="Path 203042" d="M86.674,35.985l42.5,42.5h-42.5L43.646,35.463Z" transform="translate(-43.646 -35.463)" fill="#b8b5b0"/>
        </g>
        <g id="Group_133979-5" data-name="Group 133979" transform="translate(1508.437 645.977)" opacity="0.07">
          <path id="Path_203043-5" data-name="Path 203043" d="M83.066,35.985l42.5,42.5h-42.5l-43-43.027Z" transform="translate(-40.063 -35.463)" fill="#b8b5b0"/>
        </g>
      </g>
    </g>
    <g id="Group_156584" data-name="Group 156584" transform="translate(925 978.061)">
      <path id="Path_31510" data-name="Path 31510" d="M244.693,241.282a5.847,5.847,0,0,1-.444-.651,13.924,13.924,0,0,1-1.385-8.349c.146-1.076.35-2.143.494-3.219a2.3,2.3,0,0,0-.138-.713,2.052,2.052,0,0,0-.62.182,7.45,7.45,0,0,0-3.567,5.839,19.531,19.531,0,0,1-.542,2.691,6.139,6.139,0,0,1-1.293-3.227,5.75,5.75,0,0,1,1.367-4.973c.805-1,1.693-1.925,2.505-2.917.143-.175.091-.51.13-.771a2.041,2.041,0,0,0-.792-.012,12.337,12.337,0,0,0-6.209,7.214,2.322,2.322,0,0,1-.664,1.095,5.769,5.769,0,0,1-.356-.977c-.586-3.354,1.111-5.607,3.668-7.386a9.764,9.764,0,0,1,4.6-1.8,1.714,1.714,0,0,0,.944-.661c-1.989-.467-3.965-.728-5.84.149a8.307,8.307,0,0,0-4.11,4.081l-.257-.085a9.441,9.441,0,0,1,.343-1.556c.964-2.409,2.946-3.671,5.264-4.488a18.352,18.352,0,0,1,5.765-.883c.3-.006.6.2.906.221a2.036,2.036,0,0,0,.672-.208c-.114-.175-.2-.462-.347-.506a33.635,33.635,0,0,0-3.374-.87c-1.585-.285-3.033.407-4.517.807a1.337,1.337,0,0,1-.679.054,7.111,7.111,0,0,1,4.944-2.916,15.17,15.17,0,0,1,5.863.765c-1.365-2.134-3.4-2.775-5.826-2.64a4.834,4.834,0,0,1,4.24-.423c.905.424,1.758.958,2.633,1.446.832.463.964.4,1.09-.522.1-.724.189-1.449.283-2.174l.33-.084a3.143,3.143,0,0,1,.437.845,11.463,11.463,0,0,1,.142,1.8c.01.7.421.677.862.48a4.756,4.756,0,0,0,.837-.6,7.248,7.248,0,0,1,3.917-1.386,3.212,3.212,0,0,1,2.646.924,6.837,6.837,0,0,0-5.909,2.082l.094.255c.868-.2,1.73-.423,2.6-.586a7.408,7.408,0,0,1,5.432.632,27.939,27.939,0,0,1,2.723,2.15l-.133.16a28.14,28.14,0,0,0-4.6-.784c-1.52-.018-3.2-.153-4.5.963,0,.11,0,.219,0,.329.362.06.722.15,1.086.176a42.014,42.014,0,0,1,5.647.424,7.55,7.55,0,0,1,6.089,5.1,1.491,1.491,0,0,1,.022.832c-1.6-2.121-3.454-3.813-6.148-4.165a25.7,25.7,0,0,0-3.3-.023l-.132.253a4.14,4.14,0,0,0,1.027.654,11.624,11.624,0,0,1,6.817,4.511,6.131,6.131,0,0,1,.481,5.708c-.55-1.146-1.08-2.3-1.656-3.436a7.613,7.613,0,0,0-4.154-4.066c-.26-.094-.452-.368-.71-.476a5.839,5.839,0,0,0-.953-.235l-.176.3c.418.516.807,1.06,1.261,1.543,1.307,1.393,2.559,2.839,2.862,4.8a8.1,8.1,0,0,1-1.544,5.639,10.579,10.579,0,0,1-.338-2.022,6.9,6.9,0,0,0-1.335-4.575,22.544,22.544,0,0,0-2.094-2.246.613.613,0,0,0-.541-.131.637.637,0,0,0-.241.487,4.108,4.108,0,0,0,.072,1.028,16.833,16.833,0,0,1-.674,9.729,11.247,11.247,0,0,1-.757,1.367l-.249-.076c-.024-.27-.067-.541-.067-.811,0-1.116.046-2.233,0-3.347a6.268,6.268,0,0,0-.349-1.374c-.053-.189-.222-.4-.178-.551.249-.872-.285-1.471-.675-2.126-.324-.544-.724-.408-.9.034a7.04,7.04,0,0,0-.7,2.511c.108,5.918.314,11.835.485,17.752.025.862.062,1.726.032,2.586a5.031,5.031,0,0,0,.675,2.881,1.529,1.529,0,0,1,.157,1.215c-.889,1.937-.276,3.493,1.064,4.93a2.78,2.78,0,0,1,.657.99,1.034,1.034,0,0,1-.723,1.364,5.563,5.563,0,0,1-1.69.245c-2.1,0-4.195-.06-6.292-.058a1.649,1.649,0,0,1-1.68-.8c-.366-.712.142-1.206.542-1.681a4.766,4.766,0,0,0,1.505-3.013c0-.522-.213-1.042-.253-1.568a6.729,6.729,0,0,1,.029-1.7,17.938,17.938,0,0,0,.608-2.368c.232-6.029.4-12.061.581-18.092.043-1.393.457-2.8-.136-4.172-.045-.1-.044-.239-.109-.324-.321-.42-.657-.828-.988-1.241-.219.433-.47.853-.651,1.3a8.456,8.456,0,0,0-.847,2.394,41.68,41.68,0,0,0,.11,4.367c.008.22.022.439.034.659Z" transform="translate(-214.25 -212.815)" fill="#fff"/>
      <path id="Path_31511" data-name="Path 31511" d="M184.613,395.629a36.438,36.438,0,0,0-10.407,1.911,2.774,2.774,0,0,1-1.077-.067c.073-.395.007-.987.241-1.152a27.281,27.281,0,0,1,4.179-2.655,20.9,20.9,0,0,1,11.853-1.691,33.616,33.616,0,0,1,10.324,3.078,40.112,40.112,0,0,1,8.026,5.281c.586.493,1.132.324,1.721-.074,2.322-1.574,4.58-3.267,7.019-4.637a27.271,27.271,0,0,1,17.879-3.617,20.027,20.027,0,0,1,8.562,3.369,4.427,4.427,0,0,1,1.13,1.367.887.887,0,0,1-.1.849,1,1,0,0,1-.857.042,28.642,28.642,0,0,0-24.239,1.693,35.99,35.99,0,0,0-6,4.429c-.54.477-.476.849-.014,1.28,1.573,1.469,3.136,2.95,4.726,4.4.7.636.855.555,1.3-.311.24-.466.559-1.221.89-1.247a15.927,15.927,0,0,1,3.142.235c.127.016.313.3.316.466a14.182,14.182,0,0,1-.088,2.659c-.05.283-.652.505-1.035.684a14.574,14.574,0,0,1-1.38.492c.28.4.53.834.846,1.207.7.832,1.445,1.635,2.167,2.452,1.347,1.522,2.5,1.468,3.7-.172.694-.947,1.137-.92,1.97-.045,1.432,1.505.884,3.921-.743,5.228a5.967,5.967,0,0,1-1.575.855c-1.952.757-3.531-.044-4.906-1.347-1.6-1.52-3.142-3.106-4.7-4.677-.443-.448-.788-.376-1.121.1-.049.071-.1.144-.145.214-.318.459-.572,1.234-.969,1.315a12.881,12.881,0,0,1-3,.058c-.132,0-.314-.3-.365-.483a4.358,4.358,0,0,1-.068-.856c-.122-1.877-.122-1.877,1.641-2.445.652-.21.737-.544.258-1.01-1.481-1.439-2.972-2.868-4.438-4.322a.766.766,0,0,0-1.2-.05c-1.562,1.438-3.109,2.893-4.666,4.336-.4.37-.248.673.127.9a2.84,2.84,0,0,0,.735.213,1.233,1.233,0,0,1,1.086,1.384c-.044,2.276,0,2.277-2.206,2.452-1.379.109-1.473.056-2.11-1.2-.57-1.119-.747-1.162-1.659-.281-1.567,1.514-3.082,3.082-4.676,4.566a4.434,4.434,0,0,1-4.886,1.2,4.861,4.861,0,0,1-2.889-3.9,3.145,3.145,0,0,1,1.589-2.851.751.751,0,0,1,1.117.23c.032.048.07.092.1.142,1.246,2.231,2.547,1.836,3.974.127.716-.858,1.494-1.664,2.232-2.5.6-.683.489-1.011-.376-1.24-1.877-.5-1.493-.143-1.682-2.008-.211-2.085-.16-2.1,1.939-2.178.316-.011.632-.021.947-.041a1.023,1.023,0,0,1,1.137.717,5.927,5.927,0,0,0,.491,1c.233.377.545.5.92.149q2.512-2.35,5.027-4.7c.461-.43.4-.744-.06-1.2a27.365,27.365,0,0,0-9.4-6.03,23.345,23.345,0,0,0-6.98-1.7C186.711,395.958,185.522,395.745,184.613,395.629Z" transform="translate(-173.129 -337.383)" fill="#fff"/>
    </g>
  </g>
</svg>
