<svg xmlns="http://www.w3.org/2000/svg" width="1399.744" height="88.046" viewBox="0 0 1399.744 88.046">
  <g id="Group_158039" data-name="Group 158039" transform="translate(-260.128 -45.915)">
    <g id="Group_134838" data-name="Group 134838" transform="translate(260.128 45.915)">
      <g id="Group_134832" data-name="Group 134832" transform="translate(0 0)">
        <g id="Group_133968" data-name="Group 133968" transform="translate(0 0)">
          <path id="Path_203033" data-name="Path 203033" d="M60.873,37.185H8.264a1.579,1.579,0,1,0,0,3.157H60.873a1.579,1.579,0,1,0,0-3.157Z" transform="translate(-6.685 -37.185)" fill="#b8b5b0"/>
        </g>
        <g id="Group_133969" data-name="Group 133969" transform="translate(78.936 0)">
          <path id="Path_203034" data-name="Path 203034" d="M107.648,33.69H11.489a1.579,1.579,0,0,0,0,3.157h95.527l84.038,84.038a1.475,1.475,0,0,0,1.093.486H489.2l259.061.364H1045.28a1.432,1.432,0,0,0,1.117-.462l84.038-84.038h103.59a1.591,1.591,0,0,0,0-3.182H1129.78a1.488,1.488,0,0,0-1.117.486l-84.038,84.038H748.256L489.2,118.189H192.8L108.765,34.151A1.467,1.467,0,0,0,107.648,33.69Z" transform="translate(-9.935 -33.69)" fill="#b8b5b0"/>
        </g>
        <g id="Group_133970" data-name="Group 133970" transform="translate(1321.705 0.366)">
          <path id="Path_203035" data-name="Path 203035" d="M137.562,37.169H62.681a1.591,1.591,0,0,0,0,3.182h74.881a1.591,1.591,0,0,0,0-3.182Z" transform="translate(-61.102 -37.169)" fill="#b8b5b0"/>
        </g>
        <g id="Group_133981" data-name="Group 133981" transform="translate(558.185 3.594)" opacity="0.07">
          <path id="Path_203045" data-name="Path 203045" d="M70.155,75.989,29.667,35.5h253L243.2,74.969Z" transform="translate(-29.667 -35.5)" fill="#b8b5b0"/>
        </g>
      </g>
      <g id="Group_134833" data-name="Group 134833" transform="translate(0 0)">
        <g id="Group_133968-2" data-name="Group 133968" transform="translate(0 0)">
          <path id="Path_203033-2" data-name="Path 203033" d="M60.873,37.185H8.264a1.579,1.579,0,1,0,0,3.157H60.873a1.579,1.579,0,1,0,0-3.157Z" transform="translate(-6.685 -37.185)" fill="#b8b5b0"/>
        </g>
        <g id="Group_133969-2" data-name="Group 133969" transform="translate(78.936 0)">
          <path id="Path_203034-2" data-name="Path 203034" d="M107.648,33.69H11.489a1.579,1.579,0,0,0,0,3.157h95.527l84.038,84.038a1.475,1.475,0,0,0,1.093.486H489.2l259.061.364H1045.28a1.432,1.432,0,0,0,1.117-.462l84.038-84.038h103.59a1.591,1.591,0,0,0,0-3.182H1129.78a1.488,1.488,0,0,0-1.117.486l-84.038,84.038H748.256L489.2,118.189H192.8L108.765,34.151A1.467,1.467,0,0,0,107.648,33.69Z" transform="translate(-9.935 -33.69)" fill="#b8b5b0"/>
        </g>
        <g id="Group_133970-2" data-name="Group 133970" transform="translate(1321.705 0.366)">
          <path id="Path_203035-2" data-name="Path 203035" d="M137.562,37.169H62.681a1.591,1.591,0,0,0,0,3.182h74.881a1.591,1.591,0,0,0,0-3.182Z" transform="translate(-61.102 -37.169)" fill="#b8b5b0"/>
        </g>
      </g>
      <g id="Group_134834" data-name="Group 134834" transform="translate(0 0)">
        <g id="Group_133968-3" data-name="Group 133968" transform="translate(0 0)">
          <path id="Path_203033-3" data-name="Path 203033" d="M60.873,37.185H8.264a1.579,1.579,0,1,0,0,3.157H60.873a1.579,1.579,0,1,0,0-3.157Z" transform="translate(-6.685 -37.185)" fill="#b8b5b0"/>
        </g>
        <g id="Group_133969-3" data-name="Group 133969" transform="translate(78.936 0)">
          <path id="Path_203034-3" data-name="Path 203034" d="M107.648,33.69H11.489a1.579,1.579,0,0,0,0,3.157h95.527l84.038,84.038a1.475,1.475,0,0,0,1.093.486H489.2l259.061.364H1045.28a1.432,1.432,0,0,0,1.117-.462l84.038-84.038h103.59a1.591,1.591,0,0,0,0-3.182H1129.78a1.488,1.488,0,0,0-1.117.486l-84.038,84.038H748.256L489.2,118.189H192.8L108.765,34.151A1.467,1.467,0,0,0,107.648,33.69Z" transform="translate(-9.935 -33.69)" fill="#b8b5b0"/>
        </g>
        <g id="Group_133970-3" data-name="Group 133970" transform="translate(1321.705 0.366)">
          <path id="Path_203035-3" data-name="Path 203035" d="M137.562,37.169H62.681a1.591,1.591,0,0,0,0,3.182h74.881a1.591,1.591,0,0,0,0-3.182Z" transform="translate(-61.102 -37.169)" fill="#b8b5b0"/>
        </g>
      </g>
    </g>
  </g>
</svg>
