<svg xmlns="http://www.w3.org/2000/svg" width="309.651" height="99.216" viewBox="0 0 309.651 99.216">
  <g id="Group_134844" data-name="Group 134844" transform="translate(-805.174 -13.744)">
    <g id="Group_32745" data-name="Group 32745" transform="translate(-248.921 -6.635)">
      <g id="Group_32743" data-name="Group 32743" transform="translate(1064.703 29.556)">
        <path id="Path_23596" data-name="Path 23596" d="M0,0H288.435V84.735H0Z" fill="#333" style="mix-blend-mode: soft-light;isolation: isolate"/>
      </g>
      <g id="Group_32744" data-name="Group 32744" transform="translate(1054.095 20.379)" opacity="0.45" style="mix-blend-mode: hard-light;isolation: isolate">
        <g id="Union_3" data-name="Union 3" transform="translate(299.043 88.608)" fill="#fff">
          <path d="M 10.25259876251221 10.35751628875732 L 0.2499990910291672 10.35751628875732 L 0.2499990910291672 8.546996116638184 L 8.297009468078613 8.546996116638184 L 8.547009468078613 8.546996116638184 L 8.547009468078613 8.296996116638184 L 8.547009468078613 0.249996230006218 L 10.35751914978027 0.249996230006218 L 10.35751914978027 10.25239658355713 L 10.25259876251221 10.25239658355713 L 10.25259876251221 10.35751628875732 Z" stroke="none"/>
          <path d="M 8.797009468078613 0.4999961853027344 L 8.797009468078613 8.796996116638184 L 0.4999990463256836 8.796996116638184 L 0.4999990463256836 10.10751628875732 L 10.00259876251221 10.10751628875732 L 10.00259876251221 10.00239658355713 L 10.10751914978027 10.00239658355713 L 10.10751914978027 0.4999961853027344 L 8.797009468078613 0.4999961853027344 M 8.297008514404297 -3.814697265625e-06 L 10.60751914978027 -3.814697265625e-06 L 10.60751914978027 10.50239658355713 L 10.50259876251221 10.50239658355713 L 10.50259876251221 10.60751628875732 L -9.5367431640625e-07 10.60751628875732 L -9.5367431640625e-07 8.296996116638184 L 8.297008514404297 8.296996116638184 L 8.297008514404297 -3.814697265625e-06 Z" stroke="none" fill="#fff"/>
        </g>
        <g id="Union_2" data-name="Union 2" transform="translate(10.608 10.82) rotate(180)" fill="#fff">
          <path d="M 10.25263404846191 10.35751628875732 L 0.2500038743019104 10.35751628875732 L 0.2500038743019104 8.547006607055664 L 8.29703426361084 8.547006607055664 L 8.54703426361084 8.547006607055664 L 8.54703426361084 8.297006607055664 L 8.54703426361084 0.249996230006218 L 10.3575439453125 0.249996230006218 L 10.3575439453125 10.25240612030029 L 10.25263404846191 10.25240612030029 L 10.25263404846191 10.35751628875732 Z" stroke="none"/>
          <path d="M 8.79703426361084 0.4999961853027344 L 8.79703426361084 8.797006607055664 L 0.5000038146972656 8.797006607055664 L 0.5000038146972656 10.10751628875732 L 10.00263404846191 10.10751628875732 L 10.00263404846191 10.00240612030029 L 10.1075439453125 10.00240612030029 L 10.1075439453125 0.4999961853027344 L 8.79703426361084 0.4999961853027344 M 8.297033309936523 -3.814697265625e-06 L 10.6075439453125 -3.814697265625e-06 L 10.6075439453125 10.50240612030029 L 10.50263404846191 10.50240612030029 L 10.50263404846191 10.60751628875732 L 3.814697265625e-06 10.60751628875732 L 3.814697265625e-06 8.297006607055664 L 8.297033309936523 8.297006607055664 L 8.297033309936523 -3.814697265625e-06 Z" stroke="none" fill="#fff"/>
        </g>
        <g id="Union_5" data-name="Union 5" transform="translate(299.043)" fill="#fff">
          <path d="M 10.3572998046875 10.3574743270874 L 8.546839714050293 10.3574743270874 L 8.546839714050293 2.310504674911499 L 8.546839714050293 2.060504674911499 L 8.296839714050293 2.060504674911499 L 0.2499998956918716 2.060504674911499 L 0.2499998956918716 0.250004768371582 L 10.25238037109375 0.250004768371582 L 10.25238037109375 0.3551147878170013 L 10.3572998046875 0.3551147878170013 L 10.3572998046875 10.3574743270874 Z" stroke="none"/>
          <path d="M 10.1072998046875 10.1074743270874 L 10.1072998046875 0.605114758014679 L 10.00238037109375 0.605114758014679 L 10.00238037109375 0.500004768371582 L 0.4999999105930328 0.500004768371582 L 0.4999999105930328 1.810504794120789 L 8.796839714050293 1.810504794120789 L 8.796839714050293 10.1074743270874 L 10.1072998046875 10.1074743270874 M 10.6072998046875 10.6074743270874 L 8.296839714050293 10.6074743270874 L 8.296839714050293 2.310504674911499 L -9.765624753299562e-08 2.310504674911499 L -9.765624753299562e-08 4.779357823281316e-06 L 10.50238037109375 4.779357823281316e-06 L 10.50238037109375 0.1051147803664207 L 10.6072998046875 0.1051147803664207 L 10.6072998046875 10.6074743270874 Z" stroke="none" fill="#fff"/>
        </g>
        <g id="Union_4" data-name="Union 4" transform="translate(10.608 99.216) rotate(180)" fill="#fff">
          <path d="M 10.35755634307861 10.35751628875732 L 8.547037124633789 10.35751628875732 L 8.547037124633789 2.310516119003296 L 8.547037124633789 2.060516119003296 L 8.297037124633789 2.060516119003296 L 0.2499967366456985 2.060516119003296 L 0.2499967366456985 0.249996230006218 L 10.25262641906738 0.249996230006218 L 10.25262641906738 0.3551062345504761 L 10.35755634307861 0.3551062345504761 L 10.35755634307861 10.35751628875732 Z" stroke="none"/>
          <path d="M 10.10755634307861 10.10751628875732 L 10.10755634307861 0.6051062345504761 L 10.00262641906738 0.6051062345504761 L 10.00262641906738 0.4999962449073792 L 0.4999967515468597 0.4999962449073792 L 0.4999967515468597 1.810516238212585 L 8.797037124633789 1.810516238212585 L 8.797037124633789 10.10751628875732 L 10.10755634307861 10.10751628875732 M 10.60755634307861 10.60751628875732 L 8.297037124633789 10.60751628875732 L 8.297037124633789 2.310516119003296 L -3.258972128605819e-06 2.310516119003296 L -3.258972128605819e-06 -3.76296998183534e-06 L 10.50262641906738 -3.76296998183534e-06 L 10.50262641906738 0.1051062345504761 L 10.60755634307861 0.1051062345504761 L 10.60755634307861 10.60751628875732 Z" stroke="none" fill="#fff"/>
        </g>
      </g>
    </g>
    <g id="Group_134840" data-name="Group 134840" transform="translate(-248.921 -6.635)">
      <g id="Group_32743-2" data-name="Group 32743" transform="translate(1064.703 29.556)">
        <path id="Path_23596-2" data-name="Path 23596" d="M0,0H288.435V84.735H0Z" fill="#333" style="mix-blend-mode: soft-light;isolation: isolate"/>
      </g>
      <g id="Group_32744-2" data-name="Group 32744" transform="translate(1054.095 20.379)" opacity="0.45" style="mix-blend-mode: hard-light;isolation: isolate">
        <g id="Union_3-2" data-name="Union 3" transform="translate(299.043 88.608)" fill="#fff">
          <path d="M 10.25259876251221 10.35751628875732 L 0.2499990910291672 10.35751628875732 L 0.2499990910291672 8.546996116638184 L 8.297009468078613 8.546996116638184 L 8.547009468078613 8.546996116638184 L 8.547009468078613 8.296996116638184 L 8.547009468078613 0.249996230006218 L 10.35751914978027 0.249996230006218 L 10.35751914978027 10.25239658355713 L 10.25259876251221 10.25239658355713 L 10.25259876251221 10.35751628875732 Z" stroke="none"/>
          <path d="M 8.797009468078613 0.4999961853027344 L 8.797009468078613 8.796996116638184 L 0.4999990463256836 8.796996116638184 L 0.4999990463256836 10.10751628875732 L 10.00259876251221 10.10751628875732 L 10.00259876251221 10.00239658355713 L 10.10751914978027 10.00239658355713 L 10.10751914978027 0.4999961853027344 L 8.797009468078613 0.4999961853027344 M 8.297008514404297 -3.814697265625e-06 L 10.60751914978027 -3.814697265625e-06 L 10.60751914978027 10.50239658355713 L 10.50259876251221 10.50239658355713 L 10.50259876251221 10.60751628875732 L -9.5367431640625e-07 10.60751628875732 L -9.5367431640625e-07 8.296996116638184 L 8.297008514404297 8.296996116638184 L 8.297008514404297 -3.814697265625e-06 Z" stroke="none" fill="#fff"/>
        </g>
        <g id="Union_2-2" data-name="Union 2" transform="translate(10.608 10.82) rotate(180)" fill="#fff">
          <path d="M 10.25263404846191 10.35751628875732 L 0.2500038743019104 10.35751628875732 L 0.2500038743019104 8.547006607055664 L 8.29703426361084 8.547006607055664 L 8.54703426361084 8.547006607055664 L 8.54703426361084 8.297006607055664 L 8.54703426361084 0.249996230006218 L 10.3575439453125 0.249996230006218 L 10.3575439453125 10.25240612030029 L 10.25263404846191 10.25240612030029 L 10.25263404846191 10.35751628875732 Z" stroke="none"/>
          <path d="M 8.79703426361084 0.4999961853027344 L 8.79703426361084 8.797006607055664 L 0.5000038146972656 8.797006607055664 L 0.5000038146972656 10.10751628875732 L 10.00263404846191 10.10751628875732 L 10.00263404846191 10.00240612030029 L 10.1075439453125 10.00240612030029 L 10.1075439453125 0.4999961853027344 L 8.79703426361084 0.4999961853027344 M 8.297033309936523 -3.814697265625e-06 L 10.6075439453125 -3.814697265625e-06 L 10.6075439453125 10.50240612030029 L 10.50263404846191 10.50240612030029 L 10.50263404846191 10.60751628875732 L 3.814697265625e-06 10.60751628875732 L 3.814697265625e-06 8.297006607055664 L 8.297033309936523 8.297006607055664 L 8.297033309936523 -3.814697265625e-06 Z" stroke="none" fill="#fff"/>
        </g>
        <g id="Union_5-2" data-name="Union 5" transform="translate(299.043)" fill="#fff">
          <path d="M 10.3572998046875 10.3574743270874 L 8.546839714050293 10.3574743270874 L 8.546839714050293 2.310504674911499 L 8.546839714050293 2.060504674911499 L 8.296839714050293 2.060504674911499 L 0.2499998956918716 2.060504674911499 L 0.2499998956918716 0.250004768371582 L 10.25238037109375 0.250004768371582 L 10.25238037109375 0.3551147878170013 L 10.3572998046875 0.3551147878170013 L 10.3572998046875 10.3574743270874 Z" stroke="none"/>
          <path d="M 10.1072998046875 10.1074743270874 L 10.1072998046875 0.605114758014679 L 10.00238037109375 0.605114758014679 L 10.00238037109375 0.500004768371582 L 0.4999999105930328 0.500004768371582 L 0.4999999105930328 1.810504794120789 L 8.796839714050293 1.810504794120789 L 8.796839714050293 10.1074743270874 L 10.1072998046875 10.1074743270874 M 10.6072998046875 10.6074743270874 L 8.296839714050293 10.6074743270874 L 8.296839714050293 2.310504674911499 L -9.765624753299562e-08 2.310504674911499 L -9.765624753299562e-08 4.779357823281316e-06 L 10.50238037109375 4.779357823281316e-06 L 10.50238037109375 0.1051147803664207 L 10.6072998046875 0.1051147803664207 L 10.6072998046875 10.6074743270874 Z" stroke="none" fill="#fff"/>
        </g>
        <g id="Union_4-2" data-name="Union 4" transform="translate(10.608 99.216) rotate(180)" fill="#fff">
          <path d="M 10.35755634307861 10.35751628875732 L 8.547037124633789 10.35751628875732 L 8.547037124633789 2.310516119003296 L 8.547037124633789 2.060516119003296 L 8.297037124633789 2.060516119003296 L 0.2499967366456985 2.060516119003296 L 0.2499967366456985 0.249996230006218 L 10.25262641906738 0.249996230006218 L 10.25262641906738 0.3551062345504761 L 10.35755634307861 0.3551062345504761 L 10.35755634307861 10.35751628875732 Z" stroke="none"/>
          <path d="M 10.10755634307861 10.10751628875732 L 10.10755634307861 0.6051062345504761 L 10.00262641906738 0.6051062345504761 L 10.00262641906738 0.4999962449073792 L 0.4999967515468597 0.4999962449073792 L 0.4999967515468597 1.810516238212585 L 8.797037124633789 1.810516238212585 L 8.797037124633789 10.10751628875732 L 10.10755634307861 10.10751628875732 M 10.60755634307861 10.60751628875732 L 8.297037124633789 10.60751628875732 L 8.297037124633789 2.310516119003296 L -3.258972128605819e-06 2.310516119003296 L -3.258972128605819e-06 -3.76296998183534e-06 L 10.50262641906738 -3.76296998183534e-06 L 10.50262641906738 0.1051062345504761 L 10.60755634307861 0.1051062345504761 L 10.60755634307861 10.60751628875732 Z" stroke="none" fill="#fff"/>
        </g>
      </g>
    </g>
    <g id="Group_134841" data-name="Group 134841" transform="translate(-248.921 -6.635)">
      <g id="Group_32743-3" data-name="Group 32743" transform="translate(1064.703 29.556)">
        <path id="Path_23596-3" data-name="Path 23596" d="M0,0H288.435V84.735H0Z" fill="#30415A" style="mix-blend-mode: soft-light;isolation: isolate"/>
      </g>
      <g id="Group_32744-3" data-name="Group 32744" transform="translate(1054.095 20.379)" opacity="0.45" style="mix-blend-mode: hard-light;isolation: isolate">
        <g id="Union_3-3" data-name="Union 3" transform="translate(299.043 88.608)" fill="#fff">
          <path d="M 10.25259876251221 10.35751628875732 L 0.2499990910291672 10.35751628875732 L 0.2499990910291672 8.546996116638184 L 8.297009468078613 8.546996116638184 L 8.547009468078613 8.546996116638184 L 8.547009468078613 8.296996116638184 L 8.547009468078613 0.249996230006218 L 10.35751914978027 0.249996230006218 L 10.35751914978027 10.25239658355713 L 10.25259876251221 10.25239658355713 L 10.25259876251221 10.35751628875732 Z" stroke="none"/>
          <path d="M 8.797009468078613 0.4999961853027344 L 8.797009468078613 8.796996116638184 L 0.4999990463256836 8.796996116638184 L 0.4999990463256836 10.10751628875732 L 10.00259876251221 10.10751628875732 L 10.00259876251221 10.00239658355713 L 10.10751914978027 10.00239658355713 L 10.10751914978027 0.4999961853027344 L 8.797009468078613 0.4999961853027344 M 8.297008514404297 -3.814697265625e-06 L 10.60751914978027 -3.814697265625e-06 L 10.60751914978027 10.50239658355713 L 10.50259876251221 10.50239658355713 L 10.50259876251221 10.60751628875732 L -9.5367431640625e-07 10.60751628875732 L -9.5367431640625e-07 8.296996116638184 L 8.297008514404297 8.296996116638184 L 8.297008514404297 -3.814697265625e-06 Z" stroke="none" fill="#fff"/>
        </g>
        <g id="Union_2-3" data-name="Union 2" transform="translate(10.608 10.82) rotate(180)" fill="#fff">
          <path d="M 10.25263404846191 10.35751628875732 L 0.2500038743019104 10.35751628875732 L 0.2500038743019104 8.547006607055664 L 8.29703426361084 8.547006607055664 L 8.54703426361084 8.547006607055664 L 8.54703426361084 8.297006607055664 L 8.54703426361084 0.249996230006218 L 10.3575439453125 0.249996230006218 L 10.3575439453125 10.25240612030029 L 10.25263404846191 10.25240612030029 L 10.25263404846191 10.35751628875732 Z" stroke="none"/>
          <path d="M 8.79703426361084 0.4999961853027344 L 8.79703426361084 8.797006607055664 L 0.5000038146972656 8.797006607055664 L 0.5000038146972656 10.10751628875732 L 10.00263404846191 10.10751628875732 L 10.00263404846191 10.00240612030029 L 10.1075439453125 10.00240612030029 L 10.1075439453125 0.4999961853027344 L 8.79703426361084 0.4999961853027344 M 8.297033309936523 -3.814697265625e-06 L 10.6075439453125 -3.814697265625e-06 L 10.6075439453125 10.50240612030029 L 10.50263404846191 10.50240612030029 L 10.50263404846191 10.60751628875732 L 3.814697265625e-06 10.60751628875732 L 3.814697265625e-06 8.297006607055664 L 8.297033309936523 8.297006607055664 L 8.297033309936523 -3.814697265625e-06 Z" stroke="none" fill="#fff"/>
        </g>
        <g id="Union_5-3" data-name="Union 5" transform="translate(299.043)" fill="#fff">
          <path d="M 10.3572998046875 10.3574743270874 L 8.546839714050293 10.3574743270874 L 8.546839714050293 2.310504674911499 L 8.546839714050293 2.060504674911499 L 8.296839714050293 2.060504674911499 L 0.2499998956918716 2.060504674911499 L 0.2499998956918716 0.250004768371582 L 10.25238037109375 0.250004768371582 L 10.25238037109375 0.3551147878170013 L 10.3572998046875 0.3551147878170013 L 10.3572998046875 10.3574743270874 Z" stroke="none"/>
          <path d="M 10.1072998046875 10.1074743270874 L 10.1072998046875 0.605114758014679 L 10.00238037109375 0.605114758014679 L 10.00238037109375 0.500004768371582 L 0.4999999105930328 0.500004768371582 L 0.4999999105930328 1.810504794120789 L 8.796839714050293 1.810504794120789 L 8.796839714050293 10.1074743270874 L 10.1072998046875 10.1074743270874 M 10.6072998046875 10.6074743270874 L 8.296839714050293 10.6074743270874 L 8.296839714050293 2.310504674911499 L -9.765624753299562e-08 2.310504674911499 L -9.765624753299562e-08 4.779357823281316e-06 L 10.50238037109375 4.779357823281316e-06 L 10.50238037109375 0.1051147803664207 L 10.6072998046875 0.1051147803664207 L 10.6072998046875 10.6074743270874 Z" stroke="none" fill="#fff"/>
        </g>
        <g id="Union_4-3" data-name="Union 4" transform="translate(10.608 99.216) rotate(180)" fill="#fff">
          <path d="M 10.35755634307861 10.35751628875732 L 8.547037124633789 10.35751628875732 L 8.547037124633789 2.310516119003296 L 8.547037124633789 2.060516119003296 L 8.297037124633789 2.060516119003296 L 0.2499967366456985 2.060516119003296 L 0.2499967366456985 0.249996230006218 L 10.25262641906738 0.249996230006218 L 10.25262641906738 0.3551062345504761 L 10.35755634307861 0.3551062345504761 L 10.35755634307861 10.35751628875732 Z" stroke="none"/>
          <path d="M 10.10755634307861 10.10751628875732 L 10.10755634307861 0.6051062345504761 L 10.00262641906738 0.6051062345504761 L 10.00262641906738 0.4999962449073792 L 0.4999967515468597 0.4999962449073792 L 0.4999967515468597 1.810516238212585 L 8.797037124633789 1.810516238212585 L 8.797037124633789 10.10751628875732 L 10.10755634307861 10.10751628875732 M 10.60755634307861 10.60751628875732 L 8.297037124633789 10.60751628875732 L 8.297037124633789 2.310516119003296 L -3.258972128605819e-06 2.310516119003296 L -3.258972128605819e-06 -3.76296998183534e-06 L 10.50262641906738 -3.76296998183534e-06 L 10.50262641906738 0.1051062345504761 L 10.60755634307861 0.1051062345504761 L 10.60755634307861 10.60751628875732 Z" stroke="none" fill="#fff"/>
        </g>
      </g>
    </g>
    <g id="Group_134842" data-name="Group 134842" transform="translate(-248.921 -6.635)">
      <g id="Group_32743-4" data-name="Group 32743" transform="translate(1064.703 29.556)">
        <path id="Path_23596-4" data-name="Path 23596" d="M0,0H288.435V84.735H0Z" fill="#30415A" style="mix-blend-mode: soft-light;isolation: isolate"/>
      </g>
      <g id="Group_32744-4" data-name="Group 32744" transform="translate(1054.095 20.379)" opacity="0.45" style="mix-blend-mode: hard-light;isolation: isolate">
        <g id="Union_3-4" data-name="Union 3" transform="translate(299.043 88.608)" fill="#fff">
          <path d="M 10.25259876251221 10.35751628875732 L 0.2499990910291672 10.35751628875732 L 0.2499990910291672 8.546996116638184 L 8.297009468078613 8.546996116638184 L 8.547009468078613 8.546996116638184 L 8.547009468078613 8.296996116638184 L 8.547009468078613 0.249996230006218 L 10.35751914978027 0.249996230006218 L 10.35751914978027 10.25239658355713 L 10.25259876251221 10.25239658355713 L 10.25259876251221 10.35751628875732 Z" stroke="none"/>
          <path d="M 8.797009468078613 0.4999961853027344 L 8.797009468078613 8.796996116638184 L 0.4999990463256836 8.796996116638184 L 0.4999990463256836 10.10751628875732 L 10.00259876251221 10.10751628875732 L 10.00259876251221 10.00239658355713 L 10.10751914978027 10.00239658355713 L 10.10751914978027 0.4999961853027344 L 8.797009468078613 0.4999961853027344 M 8.297008514404297 -3.814697265625e-06 L 10.60751914978027 -3.814697265625e-06 L 10.60751914978027 10.50239658355713 L 10.50259876251221 10.50239658355713 L 10.50259876251221 10.60751628875732 L -9.5367431640625e-07 10.60751628875732 L -9.5367431640625e-07 8.296996116638184 L 8.297008514404297 8.296996116638184 L 8.297008514404297 -3.814697265625e-06 Z" stroke="none" fill="#fff"/>
        </g>
        <g id="Union_2-4" data-name="Union 2" transform="translate(10.608 10.82) rotate(180)" fill="#fff">
          <path d="M 10.25263404846191 10.35751628875732 L 0.2500038743019104 10.35751628875732 L 0.2500038743019104 8.547006607055664 L 8.29703426361084 8.547006607055664 L 8.54703426361084 8.547006607055664 L 8.54703426361084 8.297006607055664 L 8.54703426361084 0.249996230006218 L 10.3575439453125 0.249996230006218 L 10.3575439453125 10.25240612030029 L 10.25263404846191 10.25240612030029 L 10.25263404846191 10.35751628875732 Z" stroke="none"/>
          <path d="M 8.79703426361084 0.4999961853027344 L 8.79703426361084 8.797006607055664 L 0.5000038146972656 8.797006607055664 L 0.5000038146972656 10.10751628875732 L 10.00263404846191 10.10751628875732 L 10.00263404846191 10.00240612030029 L 10.1075439453125 10.00240612030029 L 10.1075439453125 0.4999961853027344 L 8.79703426361084 0.4999961853027344 M 8.297033309936523 -3.814697265625e-06 L 10.6075439453125 -3.814697265625e-06 L 10.6075439453125 10.50240612030029 L 10.50263404846191 10.50240612030029 L 10.50263404846191 10.60751628875732 L 3.814697265625e-06 10.60751628875732 L 3.814697265625e-06 8.297006607055664 L 8.297033309936523 8.297006607055664 L 8.297033309936523 -3.814697265625e-06 Z" stroke="none" fill="#fff"/>
        </g>
        <g id="Union_5-4" data-name="Union 5" transform="translate(299.043)" fill="#fff">
          <path d="M 10.3572998046875 10.3574743270874 L 8.546839714050293 10.3574743270874 L 8.546839714050293 2.310504674911499 L 8.546839714050293 2.060504674911499 L 8.296839714050293 2.060504674911499 L 0.2499998956918716 2.060504674911499 L 0.2499998956918716 0.250004768371582 L 10.25238037109375 0.250004768371582 L 10.25238037109375 0.3551147878170013 L 10.3572998046875 0.3551147878170013 L 10.3572998046875 10.3574743270874 Z" stroke="none"/>
          <path d="M 10.1072998046875 10.1074743270874 L 10.1072998046875 0.605114758014679 L 10.00238037109375 0.605114758014679 L 10.00238037109375 0.500004768371582 L 0.4999999105930328 0.500004768371582 L 0.4999999105930328 1.810504794120789 L 8.796839714050293 1.810504794120789 L 8.796839714050293 10.1074743270874 L 10.1072998046875 10.1074743270874 M 10.6072998046875 10.6074743270874 L 8.296839714050293 10.6074743270874 L 8.296839714050293 2.310504674911499 L -9.765624753299562e-08 2.310504674911499 L -9.765624753299562e-08 4.779357823281316e-06 L 10.50238037109375 4.779357823281316e-06 L 10.50238037109375 0.1051147803664207 L 10.6072998046875 0.1051147803664207 L 10.6072998046875 10.6074743270874 Z" stroke="none" fill="#fff"/>
        </g>
        <g id="Union_4-4" data-name="Union 4" transform="translate(10.608 99.216) rotate(180)" fill="#fff">
          <path d="M 10.35755634307861 10.35751628875732 L 8.547037124633789 10.35751628875732 L 8.547037124633789 2.310516119003296 L 8.547037124633789 2.060516119003296 L 8.297037124633789 2.060516119003296 L 0.2499967366456985 2.060516119003296 L 0.2499967366456985 0.249996230006218 L 10.25262641906738 0.249996230006218 L 10.25262641906738 0.3551062345504761 L 10.35755634307861 0.3551062345504761 L 10.35755634307861 10.35751628875732 Z" stroke="none"/>
          <path d="M 10.10755634307861 10.10751628875732 L 10.10755634307861 0.6051062345504761 L 10.00262641906738 0.6051062345504761 L 10.00262641906738 0.4999962449073792 L 0.4999967515468597 0.4999962449073792 L 0.4999967515468597 1.810516238212585 L 8.797037124633789 1.810516238212585 L 8.797037124633789 10.10751628875732 L 10.10755634307861 10.10751628875732 M 10.60755634307861 10.60751628875732 L 8.297037124633789 10.60751628875732 L 8.297037124633789 2.310516119003296 L -3.258972128605819e-06 2.310516119003296 L -3.258972128605819e-06 -3.76296998183534e-06 L 10.50262641906738 -3.76296998183534e-06 L 10.50262641906738 0.1051062345504761 L 10.60755634307861 0.1051062345504761 L 10.60755634307861 10.60751628875732 Z" stroke="none" fill="#fff"/>
        </g>
      </g>
    </g>
    <g id="Group_134843" data-name="Group 134843" transform="translate(-248.921 -6.635)">
      <g id="Group_32743-5" data-name="Group 32743" transform="translate(1064.703 29.556)">
        <path id="Path_23596-5" data-name="Path 23596" d="M0,0H288.435V84.735H0Z" fill="#30415A" style="mix-blend-mode: soft-light;isolation: isolate"/>
      </g>
      <g id="Group_32744-5" data-name="Group 32744" transform="translate(1054.095 20.379)" opacity="0.45" style="mix-blend-mode: hard-light;isolation: isolate">
        <g id="Union_3-5" data-name="Union 3" transform="translate(299.043 88.608)" fill="#fff">
          <path d="M 10.25259876251221 10.35751628875732 L 0.2499990910291672 10.35751628875732 L 0.2499990910291672 8.546996116638184 L 8.297009468078613 8.546996116638184 L 8.547009468078613 8.546996116638184 L 8.547009468078613 8.296996116638184 L 8.547009468078613 0.249996230006218 L 10.35751914978027 0.249996230006218 L 10.35751914978027 10.25239658355713 L 10.25259876251221 10.25239658355713 L 10.25259876251221 10.35751628875732 Z" stroke="none"/>
          <path d="M 8.797009468078613 0.4999961853027344 L 8.797009468078613 8.796996116638184 L 0.4999990463256836 8.796996116638184 L 0.4999990463256836 10.10751628875732 L 10.00259876251221 10.10751628875732 L 10.00259876251221 10.00239658355713 L 10.10751914978027 10.00239658355713 L 10.10751914978027 0.4999961853027344 L 8.797009468078613 0.4999961853027344 M 8.297008514404297 -3.814697265625e-06 L 10.60751914978027 -3.814697265625e-06 L 10.60751914978027 10.50239658355713 L 10.50259876251221 10.50239658355713 L 10.50259876251221 10.60751628875732 L -9.5367431640625e-07 10.60751628875732 L -9.5367431640625e-07 8.296996116638184 L 8.297008514404297 8.296996116638184 L 8.297008514404297 -3.814697265625e-06 Z" stroke="none" fill="#fff"/>
        </g>
        <g id="Union_2-5" data-name="Union 2" transform="translate(10.608 10.82) rotate(180)" fill="#fff">
          <path d="M 10.25263404846191 10.35751628875732 L 0.2500038743019104 10.35751628875732 L 0.2500038743019104 8.547006607055664 L 8.29703426361084 8.547006607055664 L 8.54703426361084 8.547006607055664 L 8.54703426361084 8.297006607055664 L 8.54703426361084 0.249996230006218 L 10.3575439453125 0.249996230006218 L 10.3575439453125 10.25240612030029 L 10.25263404846191 10.25240612030029 L 10.25263404846191 10.35751628875732 Z" stroke="none"/>
          <path d="M 8.79703426361084 0.4999961853027344 L 8.79703426361084 8.797006607055664 L 0.5000038146972656 8.797006607055664 L 0.5000038146972656 10.10751628875732 L 10.00263404846191 10.10751628875732 L 10.00263404846191 10.00240612030029 L 10.1075439453125 10.00240612030029 L 10.1075439453125 0.4999961853027344 L 8.79703426361084 0.4999961853027344 M 8.297033309936523 -3.814697265625e-06 L 10.6075439453125 -3.814697265625e-06 L 10.6075439453125 10.50240612030029 L 10.50263404846191 10.50240612030029 L 10.50263404846191 10.60751628875732 L 3.814697265625e-06 10.60751628875732 L 3.814697265625e-06 8.297006607055664 L 8.297033309936523 8.297006607055664 L 8.297033309936523 -3.814697265625e-06 Z" stroke="none" fill="#fff"/>
        </g>
        <g id="Union_5-5" data-name="Union 5" transform="translate(299.043)" fill="#fff">
          <path d="M 10.3572998046875 10.3574743270874 L 8.546839714050293 10.3574743270874 L 8.546839714050293 2.310504674911499 L 8.546839714050293 2.060504674911499 L 8.296839714050293 2.060504674911499 L 0.2499998956918716 2.060504674911499 L 0.2499998956918716 0.250004768371582 L 10.25238037109375 0.250004768371582 L 10.25238037109375 0.3551147878170013 L 10.3572998046875 0.3551147878170013 L 10.3572998046875 10.3574743270874 Z" stroke="none"/>
          <path d="M 10.1072998046875 10.1074743270874 L 10.1072998046875 0.605114758014679 L 10.00238037109375 0.605114758014679 L 10.00238037109375 0.500004768371582 L 0.4999999105930328 0.500004768371582 L 0.4999999105930328 1.810504794120789 L 8.796839714050293 1.810504794120789 L 8.796839714050293 10.1074743270874 L 10.1072998046875 10.1074743270874 M 10.6072998046875 10.6074743270874 L 8.296839714050293 10.6074743270874 L 8.296839714050293 2.310504674911499 L -9.765624753299562e-08 2.310504674911499 L -9.765624753299562e-08 4.779357823281316e-06 L 10.50238037109375 4.779357823281316e-06 L 10.50238037109375 0.1051147803664207 L 10.6072998046875 0.1051147803664207 L 10.6072998046875 10.6074743270874 Z" stroke="none" fill="#fff"/>
        </g>
        <g id="Union_4-5" data-name="Union 4" transform="translate(10.608 99.216) rotate(180)" fill="#fff">
          <path d="M 10.35755634307861 10.35751628875732 L 8.547037124633789 10.35751628875732 L 8.547037124633789 2.310516119003296 L 8.547037124633789 2.060516119003296 L 8.297037124633789 2.060516119003296 L 0.2499967366456985 2.060516119003296 L 0.2499967366456985 0.249996230006218 L 10.25262641906738 0.249996230006218 L 10.25262641906738 0.3551062345504761 L 10.35755634307861 0.3551062345504761 L 10.35755634307861 10.35751628875732 Z" stroke="none"/>
          <path d="M 10.10755634307861 10.10751628875732 L 10.10755634307861 0.6051062345504761 L 10.00262641906738 0.6051062345504761 L 10.00262641906738 0.4999962449073792 L 0.4999967515468597 0.4999962449073792 L 0.4999967515468597 1.810516238212585 L 8.797037124633789 1.810516238212585 L 8.797037124633789 10.10751628875732 L 10.10755634307861 10.10751628875732 M 10.60755634307861 10.60751628875732 L 8.297037124633789 10.60751628875732 L 8.297037124633789 2.310516119003296 L -3.258972128605819e-06 2.310516119003296 L -3.258972128605819e-06 -3.76296998183534e-06 L 10.50262641906738 -3.76296998183534e-06 L 10.50262641906738 0.1051062345504761 L 10.60755634307861 0.1051062345504761 L 10.60755634307861 10.60751628875732 Z" stroke="none" fill="#fff"/>
        </g>
      </g>
    </g>
    <g id="Group_134839" data-name="Group 134839" transform="translate(857.428 40.125)">
      <g id="Group_29803" data-name="Group 29803" transform="translate(0 0)">
        <g id="Group_140" data-name="Group 140" transform="translate(123.472 37.187)">
          <g id="Group_135" data-name="Group 135" transform="translate(0 0)">
            <path id="Path_1295" data-name="Path 1295" d="M578.322,341.853l-2.265,6.207-2.23-6.207h-1.908l-2.213,6.207-2.23-6.207h-1.925l3.363,9.267h1.62l2.357-6.55,2.375,6.55h1.6l3.383-9.267Z" transform="translate(-565.551 -341.853)" fill="#fff"/>
          </g>
          <g id="Group_136" data-name="Group 136" transform="translate(16.589 0)">
            <path id="Path_1296" data-name="Path 1296" d="M619.406,341.853h-6.118a2.694,2.694,0,0,0-2.608,2.861v6.406h1.8v-6.406c0-.628.288-1.06.81-1.06h6.118c.5,0,.827.432.827,1.06v1.476h-6.406v1.8h6.406v3.133h1.8v-6.406A2.721,2.721,0,0,0,619.406,341.853Z" transform="translate(-610.681 -341.853)" fill="#fff"/>
          </g>
          <g id="Group_137" data-name="Group 137" transform="translate(30.821 0)">
            <path id="Path_1297" data-name="Path 1297" d="M654.473,346.5l4.587-4.642h-2.5l-4.55,4.642,4.855,4.625h2.5Zm-5.075-4.642v9.267h1.8v-9.267Z" transform="translate(-649.398 -341.853)" fill="#fff"/>
          </g>
          <g id="Group_138" data-name="Group 138" transform="translate(43.039 0)">
            <path id="Path_1298" data-name="Path 1298" d="M685.786,345.579v1.8h6.224v-1.8Zm6.728-1.925v-1.8h-9.878v9.267h9.878v-1.8h-8.077v-5.665Z" transform="translate(-682.636 -341.853)" fill="#fff"/>
          </g>
          <g id="Group_139" data-name="Group 139" transform="translate(55.799 0)">
            <path id="Path_1299" data-name="Path 1299" d="M727.8,346.423a2.4,2.4,0,0,0,.954-2.014,2.477,2.477,0,0,0-2.591-2.556h-8.815v9.267h8.976a2.5,2.5,0,0,0,2.608-2.556A2.353,2.353,0,0,0,727.8,346.423Zm-1.476,2.9h-7.178v-5.665h7.016c.467,0,.79.34.79.988s-.323.937-.79.937h-5.668v1.8h5.83c.487,0,.81.305.81.971C727.134,349,726.811,349.319,726.324,349.319Z" transform="translate(-717.348 -341.853)" fill="#fff"/>
          </g>
        </g>
        <g id="Group_145" data-name="Group 145" transform="translate(97.313 0.135)">
          <g id="Group_141" data-name="Group 141" transform="translate(0 14.56)">
            <path id="Path_1300" data-name="Path 1300" d="M506.9,299.986v7.561h7.717v-7.561Zm21.355-8.826a2.12,2.12,0,0,1-1.2-3.87v-6.622h-7.72V290.1H502.1v-9.434h-7.717v17.388h34.89V290.9A2.1,2.1,0,0,1,528.257,291.16Z" transform="translate(-494.387 -280.668)" fill="#fff"/>
          </g>
          <g id="Group_142" data-name="Group 142" transform="translate(32.669 10.546)">
            <path id="Path_1301" data-name="Path 1301" d="M593.4,273.607v-3.859h-7.875v10.547a2.1,2.1,0,0,1,.807.827h31.3a2.122,2.122,0,1,1,.009,2.038H586.32a2.121,2.121,0,0,1-3.06.721v7.27h45.456V273.607Z" transform="translate(-583.26 -269.748)" fill="#fff"/>
          </g>
          <g id="Group_143" data-name="Group 143" transform="translate(80.522 0)">
            <path id="Path_1302" data-name="Path 1302" d="M713.444,241.057v31.968h7.717V241.057Z" transform="translate(-713.444 -241.057)" fill="#fff"/>
          </g>
          <g id="Group_144" data-name="Group 144" transform="translate(90.404 14.756)">
            <path id="Path_1303" data-name="Path 1303" d="M757.732,298.528V281.2H740.325l.02.156v17.076H747.9v-6.6a2.124,2.124,0,1,1,2.017,0v16h7.832v-4.345Z" transform="translate(-740.325 -281.201)" fill="#fff"/>
          </g>
        </g>
        <g id="Group_147" data-name="Group 147" transform="translate(0)">
          <g id="Group_146" data-name="Group 146">
            <path id="Path_1304" data-name="Path 1304" d="M268.653,277.9l-6.832-10.809-.164-.259-8.385-13.175-3.72-5.847H243.14a2.121,2.121,0,1,1,0-2.017h5.126l-3.245-5.1h-15.37l8.25,12.964,2.611,4.1h6.671a2.123,2.123,0,0,1,3.991,1.009,2.088,2.088,0,0,1-.274,1.04l9.362,14.811a2.122,2.122,0,1,1-1.706,1.078l-9.362-14.814a1.264,1.264,0,0,1-.144.008,2.122,2.122,0,0,1-1.867-1.115h-5.388l17.053,26.8h5.34l4.438-6.636A2.123,2.123,0,0,1,268.653,277.9Z" transform="translate(-229.651 -240.689)" fill="#fff"/>
            <path id="Path_1305" data-name="Path 1305" d="M344.148,317.626l-6.339,9.965h-7.6l3.691-5.518a2.08,2.08,0,0,0,1.331-.317,2.123,2.123,0,0,0-1.277-3.913l-2.645-4.181,5.158-8.1Z" transform="translate(-293.242 -281.713)" fill="#fff"/>
          </g>
        </g>
        <g id="Group_149" data-name="Group 149" transform="translate(33.64)">
          <g id="Group_148" data-name="Group 148" transform="translate(0)">
            <path id="Path_1306" data-name="Path 1306" d="M378.852,281.437l2.847,4.475-3.066,4.818-5.582-9.23-.037-.063Z" transform="translate(-353.955 -266.458)" fill="#fff"/>
            <path id="Path_1307" data-name="Path 1307" d="M331.706,247.7l-3.27,4.414-7.27-11.422h32.095l-2.677,4a2.112,2.112,0,0,0-1.962.931,1.939,1.939,0,0,0-.1.17H335.5A2.124,2.124,0,0,0,331.5,246.8,2.086,2.086,0,0,0,331.706,247.7Z" transform="translate(-321.166 -240.689)" fill="#fff"/>
            <path id="Path_1308" data-name="Path 1308" d="M350.809,254.659a2.124,2.124,0,0,0,2.124,2.124.652.652,0,0,0,.1-.006l6.1,10.083-3.406,5.351-7.685-12.068-3.948-6.207,3.735-5.037a2.027,2.027,0,0,0,.3.023A2.122,2.122,0,0,0,350,247.806h13.019a2.123,2.123,0,0,0,3.746-2l3.426-5.118h5.6l-8.247,12.961H354.8a2.123,2.123,0,0,0-3.991,1.009Z" transform="translate(-335.667 -240.689)" fill="#fff"/>
          </g>
        </g>
        <g id="Group_151" data-name="Group 151" transform="translate(50.41)">
          <g id="Group_150" data-name="Group 150" transform="translate(0)">
            <path id="Path_1309" data-name="Path 1309" d="M401.725,260.051a2.114,2.114,0,0,1-1.864,1.115c-.06,0-.121,0-.182-.008l-3.1,4.734a2.126,2.126,0,0,1-3.741,2.02h-6.382l-5.766,9.065L373,289.054l-6.213,9.757h6.674l13.757-21.617a2.123,2.123,0,1,1,1.7,1.083l-13.065,20.534h6.3l6.213-9.757L403.105,265.9l3.72-5.847Z" transform="translate(-366.789 -252.934)" fill="#fff"/>
            <path id="Path_1310" data-name="Path 1310" d="M447.4,240.689l-3.245,5.1h-6.386a2.122,2.122,0,1,0-3.732,2.02l-3.106,4.732a2.126,2.126,0,0,0-1.957.951,1.815,1.815,0,0,0-.1.158h-5.1l8.247-12.961Z" transform="translate(-402.831 -240.689)" fill="#fff"/>
          </g>
        </g>
        <g id="Group_154" data-name="Group 154" transform="translate(52.698 14.978)">
          <g id="Group_153" data-name="Group 153">
            <g id="Group_152" data-name="Group 152">
              <path id="Path_1311" data-name="Path 1311" d="M373.089,281.437a.39.39,0,0,1-.038.063l-.037-.063Z" transform="translate(-373.014 -281.437)" fill="#fff"/>
            </g>
          </g>
        </g>
      </g>
    </g>
  </g>
</svg>
